<mxfile host="app.diagrams.net" modified="2022-03-02T16:50:23.065Z" agent="5.0 (X11; Linux x86_64) AppleWebKit/537.36 (KHTML, like Gecko) Chrome/98.0.4758.102 Safari/537.36" etag="UOfeN__jm8gHae0KzljN" version="16.6.2" type="github">
  <diagram id="Zbjerd4u_-0LSVz5EIhI" name="Page-1">
    <mxGraphModel dx="1350" dy="773" grid="1" gridSize="10" guides="1" tooltips="1" connect="1" arrows="1" fold="1" page="1" pageScale="1" pageWidth="827" pageHeight="1169" math="0" shadow="0">
      <root>
        <mxCell id="0" />
        <mxCell id="1" parent="0" />
        <mxCell id="6_fWZzhI0PDvXron7IqK-10" value="" style="whiteSpace=wrap;html=1;aspect=fixed;" vertex="1" parent="1">
          <mxGeometry x="480" y="310" width="300" height="300" as="geometry" />
        </mxCell>
        <mxCell id="6_fWZzhI0PDvXron7IqK-23" value="&lt;font style=&quot;font-size: 18px&quot;&gt;i&lt;/font&gt;" style="ellipse;whiteSpace=wrap;html=1;aspect=fixed;" vertex="1" parent="1">
          <mxGeometry x="597" y="560" width="40" height="40" as="geometry" />
        </mxCell>
        <mxCell id="6_fWZzhI0PDvXron7IqK-24" value="&lt;font style=&quot;font-size: 18px&quot;&gt;j&lt;/font&gt;" style="ellipse;whiteSpace=wrap;html=1;aspect=fixed;" vertex="1" parent="1">
          <mxGeometry x="697" y="520" width="40" height="40" as="geometry" />
        </mxCell>
        <mxCell id="6_fWZzhI0PDvXron7IqK-25" value="" style="ellipse;whiteSpace=wrap;html=1;aspect=fixed;" vertex="1" parent="1">
          <mxGeometry x="717" y="320" width="40" height="40" as="geometry" />
        </mxCell>
        <mxCell id="6_fWZzhI0PDvXron7IqK-26" value="" style="ellipse;whiteSpace=wrap;html=1;aspect=fixed;" vertex="1" parent="1">
          <mxGeometry x="577" y="380" width="40" height="40" as="geometry" />
        </mxCell>
        <mxCell id="6_fWZzhI0PDvXron7IqK-27" value="" style="endArrow=none;html=1;rounded=0;exitX=1;exitY=0.5;exitDx=0;exitDy=0;entryX=0;entryY=0.5;entryDx=0;entryDy=0;" edge="1" parent="1" source="6_fWZzhI0PDvXron7IqK-23" target="6_fWZzhI0PDvXron7IqK-24">
          <mxGeometry width="50" height="50" relative="1" as="geometry">
            <mxPoint x="707" y="420" as="sourcePoint" />
            <mxPoint x="757" y="370" as="targetPoint" />
          </mxGeometry>
        </mxCell>
        <mxCell id="6_fWZzhI0PDvXron7IqK-28" value="" style="endArrow=none;html=1;rounded=0;entryX=0.5;entryY=1;entryDx=0;entryDy=0;exitX=0.5;exitY=0;exitDx=0;exitDy=0;" edge="1" parent="1" source="6_fWZzhI0PDvXron7IqK-24" target="6_fWZzhI0PDvXron7IqK-25">
          <mxGeometry width="50" height="50" relative="1" as="geometry">
            <mxPoint x="707" y="420" as="sourcePoint" />
            <mxPoint x="757" y="370" as="targetPoint" />
          </mxGeometry>
        </mxCell>
        <mxCell id="6_fWZzhI0PDvXron7IqK-29" value="" style="endArrow=none;html=1;rounded=0;exitX=0.5;exitY=0;exitDx=0;exitDy=0;" edge="1" parent="1" source="6_fWZzhI0PDvXron7IqK-23" target="6_fWZzhI0PDvXron7IqK-25">
          <mxGeometry width="50" height="50" relative="1" as="geometry">
            <mxPoint x="707" y="420" as="sourcePoint" />
            <mxPoint x="877" y="200" as="targetPoint" />
          </mxGeometry>
        </mxCell>
        <mxCell id="6_fWZzhI0PDvXron7IqK-30" value="" style="endArrow=none;html=1;rounded=0;exitX=1;exitY=0.5;exitDx=0;exitDy=0;entryX=0;entryY=0.5;entryDx=0;entryDy=0;" edge="1" parent="1" source="6_fWZzhI0PDvXron7IqK-26" target="6_fWZzhI0PDvXron7IqK-25">
          <mxGeometry width="50" height="50" relative="1" as="geometry">
            <mxPoint x="707" y="420" as="sourcePoint" />
            <mxPoint x="757" y="370" as="targetPoint" />
          </mxGeometry>
        </mxCell>
        <mxCell id="6_fWZzhI0PDvXron7IqK-31" value="&lt;font style=&quot;font-size: 18px&quot;&gt;W&lt;sub&gt;ij&lt;/sub&gt;&lt;/font&gt;" style="text;html=1;strokeColor=none;fillColor=none;align=center;verticalAlign=middle;whiteSpace=wrap;rounded=0;" vertex="1" parent="1">
          <mxGeometry x="647" y="570" width="60" height="30" as="geometry" />
        </mxCell>
        <mxCell id="6_fWZzhI0PDvXron7IqK-32" value="" style="whiteSpace=wrap;html=1;aspect=fixed;" vertex="1" parent="1">
          <mxGeometry x="277" y="490" width="300" height="300" as="geometry" />
        </mxCell>
        <mxCell id="6_fWZzhI0PDvXron7IqK-33" value="&lt;font style=&quot;font-size: 18px&quot;&gt;i&lt;/font&gt;" style="ellipse;whiteSpace=wrap;html=1;aspect=fixed;" vertex="1" parent="1">
          <mxGeometry x="394" y="740" width="40" height="40" as="geometry" />
        </mxCell>
        <mxCell id="6_fWZzhI0PDvXron7IqK-34" value="&lt;font style=&quot;font-size: 18px&quot;&gt;j&lt;/font&gt;" style="ellipse;whiteSpace=wrap;html=1;aspect=fixed;" vertex="1" parent="1">
          <mxGeometry x="494" y="700" width="40" height="40" as="geometry" />
        </mxCell>
        <mxCell id="6_fWZzhI0PDvXron7IqK-35" value="" style="ellipse;whiteSpace=wrap;html=1;aspect=fixed;" vertex="1" parent="1">
          <mxGeometry x="514" y="500" width="40" height="40" as="geometry" />
        </mxCell>
        <mxCell id="6_fWZzhI0PDvXron7IqK-36" value="" style="ellipse;whiteSpace=wrap;html=1;aspect=fixed;" vertex="1" parent="1">
          <mxGeometry x="374" y="560" width="40" height="40" as="geometry" />
        </mxCell>
        <mxCell id="6_fWZzhI0PDvXron7IqK-37" value="" style="endArrow=none;html=1;rounded=0;exitX=1;exitY=0.5;exitDx=0;exitDy=0;entryX=0;entryY=0.5;entryDx=0;entryDy=0;" edge="1" parent="1" source="6_fWZzhI0PDvXron7IqK-33" target="6_fWZzhI0PDvXron7IqK-34">
          <mxGeometry width="50" height="50" relative="1" as="geometry">
            <mxPoint x="504" y="600" as="sourcePoint" />
            <mxPoint x="554" y="550" as="targetPoint" />
          </mxGeometry>
        </mxCell>
        <mxCell id="6_fWZzhI0PDvXron7IqK-38" value="" style="endArrow=none;html=1;rounded=0;entryX=0.5;entryY=1;entryDx=0;entryDy=0;exitX=0.5;exitY=0;exitDx=0;exitDy=0;" edge="1" parent="1" source="6_fWZzhI0PDvXron7IqK-34" target="6_fWZzhI0PDvXron7IqK-35">
          <mxGeometry width="50" height="50" relative="1" as="geometry">
            <mxPoint x="504" y="600" as="sourcePoint" />
            <mxPoint x="554" y="550" as="targetPoint" />
          </mxGeometry>
        </mxCell>
        <mxCell id="6_fWZzhI0PDvXron7IqK-39" value="" style="endArrow=none;html=1;rounded=0;exitX=0.5;exitY=0;exitDx=0;exitDy=0;" edge="1" parent="1" source="6_fWZzhI0PDvXron7IqK-33" target="6_fWZzhI0PDvXron7IqK-35">
          <mxGeometry width="50" height="50" relative="1" as="geometry">
            <mxPoint x="504" y="600" as="sourcePoint" />
            <mxPoint x="674" y="380" as="targetPoint" />
          </mxGeometry>
        </mxCell>
        <mxCell id="6_fWZzhI0PDvXron7IqK-40" value="" style="endArrow=none;html=1;rounded=0;exitX=1;exitY=0.5;exitDx=0;exitDy=0;entryX=0;entryY=0.5;entryDx=0;entryDy=0;" edge="1" parent="1" source="6_fWZzhI0PDvXron7IqK-36" target="6_fWZzhI0PDvXron7IqK-35">
          <mxGeometry width="50" height="50" relative="1" as="geometry">
            <mxPoint x="504" y="600" as="sourcePoint" />
            <mxPoint x="554" y="550" as="targetPoint" />
          </mxGeometry>
        </mxCell>
        <mxCell id="6_fWZzhI0PDvXron7IqK-41" value="&lt;font style=&quot;font-size: 18px&quot;&gt;W&lt;sub&gt;ij&lt;/sub&gt;&lt;/font&gt;" style="text;html=1;strokeColor=none;fillColor=none;align=center;verticalAlign=middle;whiteSpace=wrap;rounded=0;" vertex="1" parent="1">
          <mxGeometry x="444" y="750" width="60" height="30" as="geometry" />
        </mxCell>
        <mxCell id="6_fWZzhI0PDvXron7IqK-42" value="" style="whiteSpace=wrap;html=1;aspect=fixed;" vertex="1" parent="1">
          <mxGeometry x="90" y="680" width="300" height="300" as="geometry" />
        </mxCell>
        <mxCell id="6_fWZzhI0PDvXron7IqK-43" value="&lt;font style=&quot;font-size: 18px&quot;&gt;i&lt;/font&gt;" style="ellipse;whiteSpace=wrap;html=1;aspect=fixed;" vertex="1" parent="1">
          <mxGeometry x="207" y="930" width="40" height="40" as="geometry" />
        </mxCell>
        <mxCell id="6_fWZzhI0PDvXron7IqK-44" value="&lt;font style=&quot;font-size: 18px&quot;&gt;j&lt;/font&gt;" style="ellipse;whiteSpace=wrap;html=1;aspect=fixed;" vertex="1" parent="1">
          <mxGeometry x="307" y="890" width="40" height="40" as="geometry" />
        </mxCell>
        <mxCell id="6_fWZzhI0PDvXron7IqK-45" value="" style="ellipse;whiteSpace=wrap;html=1;aspect=fixed;" vertex="1" parent="1">
          <mxGeometry x="327" y="690" width="40" height="40" as="geometry" />
        </mxCell>
        <mxCell id="6_fWZzhI0PDvXron7IqK-46" value="" style="ellipse;whiteSpace=wrap;html=1;aspect=fixed;" vertex="1" parent="1">
          <mxGeometry x="187" y="750" width="40" height="40" as="geometry" />
        </mxCell>
        <mxCell id="6_fWZzhI0PDvXron7IqK-47" value="" style="endArrow=none;html=1;rounded=0;exitX=1;exitY=0.5;exitDx=0;exitDy=0;entryX=0;entryY=0.5;entryDx=0;entryDy=0;" edge="1" parent="1" source="6_fWZzhI0PDvXron7IqK-43" target="6_fWZzhI0PDvXron7IqK-44">
          <mxGeometry width="50" height="50" relative="1" as="geometry">
            <mxPoint x="317" y="790" as="sourcePoint" />
            <mxPoint x="367" y="740" as="targetPoint" />
          </mxGeometry>
        </mxCell>
        <mxCell id="6_fWZzhI0PDvXron7IqK-48" value="" style="endArrow=none;html=1;rounded=0;entryX=0.5;entryY=1;entryDx=0;entryDy=0;exitX=0.5;exitY=0;exitDx=0;exitDy=0;" edge="1" parent="1" source="6_fWZzhI0PDvXron7IqK-44" target="6_fWZzhI0PDvXron7IqK-45">
          <mxGeometry width="50" height="50" relative="1" as="geometry">
            <mxPoint x="317" y="790" as="sourcePoint" />
            <mxPoint x="367" y="740" as="targetPoint" />
          </mxGeometry>
        </mxCell>
        <mxCell id="6_fWZzhI0PDvXron7IqK-49" value="" style="endArrow=none;html=1;rounded=0;exitX=0.5;exitY=0;exitDx=0;exitDy=0;" edge="1" parent="1" source="6_fWZzhI0PDvXron7IqK-43" target="6_fWZzhI0PDvXron7IqK-45">
          <mxGeometry width="50" height="50" relative="1" as="geometry">
            <mxPoint x="317" y="790" as="sourcePoint" />
            <mxPoint x="487" y="570" as="targetPoint" />
          </mxGeometry>
        </mxCell>
        <mxCell id="6_fWZzhI0PDvXron7IqK-50" value="" style="endArrow=none;html=1;rounded=0;exitX=1;exitY=0.5;exitDx=0;exitDy=0;entryX=0;entryY=0.5;entryDx=0;entryDy=0;" edge="1" parent="1" source="6_fWZzhI0PDvXron7IqK-46" target="6_fWZzhI0PDvXron7IqK-45">
          <mxGeometry width="50" height="50" relative="1" as="geometry">
            <mxPoint x="317" y="790" as="sourcePoint" />
            <mxPoint x="367" y="740" as="targetPoint" />
          </mxGeometry>
        </mxCell>
        <mxCell id="6_fWZzhI0PDvXron7IqK-51" value="&lt;font style=&quot;font-size: 18px&quot;&gt;W&lt;sub&gt;ij&lt;/sub&gt;&lt;/font&gt;" style="text;html=1;strokeColor=none;fillColor=none;align=center;verticalAlign=middle;whiteSpace=wrap;rounded=0;" vertex="1" parent="1">
          <mxGeometry x="257" y="940" width="60" height="30" as="geometry" />
        </mxCell>
        <mxCell id="6_fWZzhI0PDvXron7IqK-52" value="&lt;i&gt;&lt;font style=&quot;font-size: 18px&quot;&gt;v&lt;sub&gt;t+H&lt;/sub&gt;&lt;/font&gt;&lt;/i&gt;" style="text;html=1;strokeColor=none;fillColor=none;align=center;verticalAlign=middle;whiteSpace=wrap;rounded=0;" vertex="1" parent="1">
          <mxGeometry x="484" y="320" width="126" height="50" as="geometry" />
        </mxCell>
        <mxCell id="6_fWZzhI0PDvXron7IqK-53" value="&lt;i&gt;&lt;font style=&quot;font-size: 18px&quot;&gt;v&lt;sub&gt;t&lt;/sub&gt;&lt;/font&gt;&lt;/i&gt;" style="text;html=1;strokeColor=none;fillColor=none;align=center;verticalAlign=middle;whiteSpace=wrap;rounded=0;" vertex="1" parent="1">
          <mxGeometry x="284" y="500" width="126" height="50" as="geometry" />
        </mxCell>
        <mxCell id="6_fWZzhI0PDvXron7IqK-54" value="&lt;i&gt;&lt;font style=&quot;font-size: 18px&quot;&gt;v&lt;sub&gt;t-M+1&lt;/sub&gt;&lt;/font&gt;&lt;/i&gt;" style="text;html=1;strokeColor=none;fillColor=none;align=center;verticalAlign=middle;whiteSpace=wrap;rounded=0;" vertex="1" parent="1">
          <mxGeometry x="102" y="690" width="126" height="50" as="geometry" />
        </mxCell>
        <mxCell id="6_fWZzhI0PDvXron7IqK-55" value="" style="endArrow=none;dashed=1;html=1;dashPattern=1 3;strokeWidth=2;rounded=0;fontSize=18;" edge="1" parent="1">
          <mxGeometry width="50" height="50" relative="1" as="geometry">
            <mxPoint x="444" y="900" as="sourcePoint" />
            <mxPoint x="494" y="850" as="targetPoint" />
          </mxGeometry>
        </mxCell>
        <mxCell id="6_fWZzhI0PDvXron7IqK-56" value="" style="endArrow=none;dashed=1;html=1;dashPattern=1 3;strokeWidth=2;rounded=0;fontSize=18;" edge="1" parent="1">
          <mxGeometry width="50" height="50" relative="1" as="geometry">
            <mxPoint x="637" y="720" as="sourcePoint" />
            <mxPoint x="687" y="670" as="targetPoint" />
          </mxGeometry>
        </mxCell>
        <mxCell id="6_fWZzhI0PDvXron7IqK-57" value="" style="endArrow=classic;html=1;rounded=0;fontSize=18;" edge="1" parent="1">
          <mxGeometry width="50" height="50" relative="1" as="geometry">
            <mxPoint x="77" y="560" as="sourcePoint" />
            <mxPoint x="317" y="320" as="targetPoint" />
          </mxGeometry>
        </mxCell>
        <mxCell id="6_fWZzhI0PDvXron7IqK-58" value="Time" style="edgeLabel;html=1;align=center;verticalAlign=middle;resizable=0;points=[];fontSize=18;" vertex="1" connectable="0" parent="6_fWZzhI0PDvXron7IqK-57">
          <mxGeometry x="0.2042" y="4" relative="1" as="geometry">
            <mxPoint x="1" as="offset" />
          </mxGeometry>
        </mxCell>
      </root>
    </mxGraphModel>
  </diagram>
</mxfile>
